<svg width="25" height="25" viewBox="0 0 25 25" fill="none" xmlns="http://www.w3.org/2000/svg">
<path fill-rule="evenodd" clip-rule="evenodd" d="M16.3167 1.11938C16.7313 1.11938 17.0678 1.45588 17.0678 1.87049L17.0682 2.71954C18.5305 2.81979 19.7449 3.32066 20.6044 4.18197C21.5428 5.12435 22.0365 6.47934 22.0316 8.10472V17.2411C22.0316 20.578 19.9124 22.651 16.5024 22.651H8.03203C4.62203 22.651 2.50293 20.5489 2.50293 17.165V8.10271C2.50293 4.9553 4.39275 2.93498 7.4749 2.71988L7.47551 1.87049C7.47551 1.45588 7.81201 1.11938 8.22661 1.11938C8.64122 1.11938 8.97771 1.45588 8.97771 1.87049L8.97741 2.7007H15.5651L15.5656 1.87049C15.5656 1.45588 15.9021 1.11938 16.3167 1.11938ZM20.5293 10.0364H4.00513V17.165C4.00513 19.7348 5.43523 21.1488 8.03203 21.1488H16.5024C19.0992 21.1488 20.5294 19.7608 20.5294 17.2411L20.5293 10.0364ZM16.725 16.338C17.1396 16.338 17.4761 16.6745 17.4761 17.0891C17.4761 17.5037 17.1396 17.8402 16.725 17.8402C16.3104 17.8402 15.9699 17.5037 15.9699 17.0891C15.9699 16.6745 16.3013 16.338 16.7159 16.338H16.725ZM12.281 16.338C12.6956 16.338 13.0321 16.6745 13.0321 17.0891C13.0321 17.5037 12.6956 17.8402 12.281 17.8402C11.8663 17.8402 11.5258 17.5037 11.5258 17.0891C11.5258 16.6745 11.8573 16.338 12.2719 16.338H12.281ZM7.82763 16.338C8.24224 16.338 8.57873 16.6745 8.57873 17.0891C8.57873 17.5037 8.24224 17.8402 7.82763 17.8402C7.41302 17.8402 7.07152 17.5037 7.07152 17.0891C7.07152 16.6745 7.40401 16.338 7.81862 16.338H7.82763ZM16.725 12.4456C17.1396 12.4456 17.4761 12.7821 17.4761 13.1967C17.4761 13.6113 17.1396 13.9478 16.725 13.9478C16.3104 13.9478 15.9699 13.6113 15.9699 13.1967C15.9699 12.7821 16.3013 12.4456 16.7159 12.4456H16.725ZM12.281 12.4456C12.6956 12.4456 13.0321 12.7821 13.0321 13.1967C13.0321 13.6113 12.6956 13.9478 12.281 13.9478C11.8663 13.9478 11.5258 13.6113 11.5258 13.1967C11.5258 12.7821 11.8573 12.4456 12.2719 12.4456H12.281ZM7.82763 12.4456C8.24224 12.4456 8.57873 12.7821 8.57873 13.1967C8.57873 13.6113 8.24224 13.9478 7.82763 13.9478C7.41302 13.9478 7.07152 13.6113 7.07152 13.1967C7.07152 12.7821 7.40401 12.4456 7.81862 12.4456H7.82763ZM15.5651 4.2029H8.97741L8.97771 5.16631C8.97771 5.58092 8.64122 5.91741 8.22661 5.91741C7.81201 5.91741 7.47551 5.58092 7.47551 5.16631L7.47498 4.22564C5.23146 4.4141 4.00513 5.77406 4.00513 8.10271V8.53425H20.5293L20.5294 8.10271C20.5333 6.8659 20.2009 5.90449 19.5409 5.24353C18.9616 4.66248 18.1147 4.31547 17.0686 4.22612L17.0678 5.16631C17.0678 5.58092 16.7313 5.91741 16.3167 5.91741C15.9021 5.91741 15.5656 5.58092 15.5656 5.16631L15.5651 4.2029Z" fill="#373B5C"/>
</svg>
