<svg width="25" height="25" viewBox="0 0 25 25" fill="none" xmlns="http://www.w3.org/2000/svg">
<path d="M15.9723 3.90254C15.9322 4.15291 15.9122 4.40327 15.9122 4.65364C15.9122 6.90694 17.7349 8.72861 19.9782 8.72861C20.2285 8.72861 20.4689 8.69957 20.7192 8.65951V16.7403C20.7192 20.1363 18.7163 22.1493 15.3113 22.1493H7.91149C4.5055 22.1493 2.50256 20.1363 2.50256 16.7403V9.33049C2.50256 5.9255 4.5055 3.90254 7.91149 3.90254H15.9723ZM16.1736 9.99146C15.9022 9.96142 15.6328 10.0816 15.4716 10.3019L13.049 13.4365L10.2739 11.2533C10.1037 11.1231 9.9034 11.072 9.70311 11.0931C9.50382 11.1231 9.32356 11.2323 9.20238 11.3925L6.23904 15.2492L6.17795 15.3393C6.0077 15.6588 6.08782 16.0694 6.38826 16.2907C6.52846 16.3808 6.67868 16.4409 6.84893 16.4409C7.08027 16.4509 7.29959 16.3297 7.4398 16.1405L9.95348 12.9047L12.8077 15.0489L12.8978 15.108C13.2183 15.2782 13.6188 15.1991 13.8492 14.8976L16.7434 11.1632L16.7034 11.1832C16.8636 10.9629 16.8936 10.6825 16.7835 10.4321C16.6743 10.1817 16.433 10.0115 16.1736 9.99146ZM20.1185 2.11963C21.4504 2.11963 22.532 3.20121 22.532 4.53316C22.532 5.86512 21.4504 6.9467 20.1185 6.9467C18.7865 6.9467 17.7049 5.86512 17.7049 4.53316C17.7049 3.20121 18.7865 2.11963 20.1185 2.11963Z" fill="#373B5C"/>
</svg>
