<svg width="25" height="25" viewBox="0 0 25 25" fill="none" xmlns="http://www.w3.org/2000/svg">
<path fill-rule="evenodd" clip-rule="evenodd" d="M6.75916 13.136C10.8341 13.136 11.0154 14.518 11.0154 17.3922C11.0154 18.8324 11.0154 19.8569 10.4105 20.607C9.71449 21.4712 8.44764 21.6485 6.75916 21.6485C5.07069 21.6485 3.80384 21.4712 3.10782 20.607C2.50293 19.8569 2.50293 18.8334 2.50293 17.4173L3.25403 17.3922H2.50293C2.50293 14.518 2.6842 13.136 6.75916 13.136ZM17.7753 13.136C21.8503 13.136 22.0315 14.518 22.0315 17.3922C22.0315 18.8324 22.0315 19.8569 21.4266 20.607C20.7306 21.4712 19.4638 21.6485 17.7753 21.6485C16.0868 21.6485 14.82 21.4712 14.124 20.607C13.5191 19.8569 13.5191 18.8334 13.5191 17.4173L14.2702 17.3922H13.5191C13.5191 14.518 13.7003 13.136 17.7753 13.136ZM6.96563 14.6387L6.75916 14.6382C4.14636 14.6382 4.01237 14.8257 4.0055 17.0187L4.00592 17.8731C4.01067 18.7454 4.0439 19.3754 4.27653 19.6656C4.54192 19.9941 5.33007 20.1463 6.75916 20.1463C8.18826 20.1463 8.97641 19.9931 9.2418 19.6646C9.5132 19.3271 9.5132 18.5259 9.5132 17.4163C9.5132 14.9124 9.5132 14.6504 6.96563 14.6387ZM17.9818 14.6387L17.7753 14.6382C15.1625 14.6382 15.0285 14.8257 15.0216 17.0187L15.0221 17.8731C15.0268 18.7454 15.06 19.3754 15.2927 19.6656C15.5581 19.9941 16.3462 20.1463 17.7753 20.1463C19.2044 20.1463 19.9925 19.9931 20.2579 19.6646C20.5293 19.3271 20.5293 18.5259 20.5293 17.4163C20.5293 14.9124 20.5293 14.6504 17.9818 14.6387ZM6.75916 2.11987C10.8341 2.11987 11.0154 3.5019 11.0154 6.37611C11.0154 7.81622 11.0154 8.84072 10.4105 9.59082C9.71449 10.4551 8.44764 10.6323 6.75916 10.6323C5.07069 10.6323 3.80384 10.4551 3.10782 9.59082C2.50293 8.84072 2.50293 7.81722 2.50293 6.40114L3.25403 6.37611H2.50293C2.50293 3.5019 2.6842 2.11987 6.75916 2.11987ZM17.7753 2.11987C21.8503 2.11987 22.0315 3.5019 22.0315 6.37611C22.0315 7.81622 22.0315 8.84072 21.4266 9.59082C20.7306 10.4551 19.4638 10.6323 17.7753 10.6323C16.0868 10.6323 14.82 10.4551 14.124 9.59082C13.5191 8.84072 13.5191 7.81722 13.5191 6.40114L14.2702 6.37611H13.5191C13.5191 3.5019 13.7003 2.11987 17.7753 2.11987ZM6.96563 3.62252L6.75916 3.62207C4.14636 3.62207 4.01237 3.80956 4.0055 6.00261L4.00592 6.85699C4.01067 7.72923 4.0439 8.3593 4.27653 8.64944C4.54192 8.97792 5.33007 9.13014 6.75916 9.13014C8.18826 9.13014 8.97641 8.97692 9.2418 8.64844C9.5132 8.31094 9.5132 7.50977 9.5132 6.40014C9.5132 3.89627 9.5132 3.63431 6.96563 3.62252ZM17.9818 3.62252L17.7753 3.62207C15.1625 3.62207 15.0285 3.80956 15.0216 6.00261L15.0221 6.85699C15.0268 7.72923 15.06 8.3593 15.2927 8.64944C15.5581 8.97792 16.3462 9.13014 17.7753 9.13014C19.2044 9.13014 19.9925 8.97692 20.2579 8.64844C20.5293 8.31094 20.5293 7.50977 20.5293 6.40014C20.5293 3.89627 20.5293 3.63431 17.9818 3.62252Z" fill="#373B5C"/>
</svg>
