<svg width="25" height="25" viewBox="0 0 25 25" fill="none" xmlns="http://www.w3.org/2000/svg">
<path fill-rule="evenodd" clip-rule="evenodd" d="M17.166 3.12109C20.4779 3.12109 23.1718 5.81504 23.1718 9.12789V16.3154C23.1718 19.6273 20.4779 22.3222 17.166 22.3222H8.50936C5.19751 22.3222 2.50256 19.6273 2.50256 16.3154V9.12789C2.50256 5.81504 5.19751 3.12109 8.50936 3.12109H17.166ZM17.166 4.62329H8.50936C6.02572 4.62329 4.00476 6.64425 4.00476 9.12789V16.3154C4.00476 18.7991 6.02572 20.82 8.50936 20.82H17.166C19.6497 20.82 21.6696 18.7991 21.6696 16.3154V16.035L18.3669 16.0356C16.4671 16.0356 14.9209 14.4903 14.9199 12.5916C14.9199 10.6908 16.4661 9.14452 18.3669 9.14352L21.6696 9.14291V9.12789C21.6696 6.64425 19.6497 4.62329 17.166 4.62329ZM21.6696 10.6451L18.3669 10.6457C17.2943 10.6467 16.4221 11.519 16.4221 12.5906C16.4221 13.6611 17.2953 14.5334 18.3669 14.5334L21.6696 14.5328V10.6451ZM18.8252 11.7774C19.2398 11.7774 19.5763 12.1139 19.5763 12.5285C19.5763 12.9431 19.2398 13.2796 18.8252 13.2796H18.5127C18.0981 13.2796 17.7616 12.9431 17.7616 12.5285C17.7616 12.1139 18.0981 11.7774 18.5127 11.7774H18.8252ZM13.2032 7.66585C13.6178 7.66585 13.9543 8.00234 13.9543 8.41695C13.9543 8.83156 13.6178 9.16805 13.2032 9.16805H7.79632C7.38171 9.16805 7.04522 8.83156 7.04522 8.41695C7.04522 8.00234 7.38171 7.66585 7.79632 7.66585H13.2032Z" fill="#373B5C"/>
</svg>
